<svg width="204" height="33" viewBox="0 0 204 33" fill="none" xmlns="http://www.w3.org/2000/svg">
<path d="M15.375 1.125C11.2973 1.125 7.3866 2.74486 4.50323 5.62823C1.61986 8.5116 0 12.4223 0 16.5C0 20.5777 1.61986 24.4884 4.50323 27.3718C7.3866 30.2551 11.2973 31.875 15.375 31.875C19.4527 31.875 23.3634 30.2551 26.2468 27.3718C29.1301 24.4884 30.75 20.5777 30.75 16.5C30.75 12.4223 29.1301 8.5116 26.2468 5.62823C23.3634 2.74486 19.4527 1.125 15.375 1.125ZM23.91 17.385C23.7208 17.6339 23.4586 17.8174 23.16 17.91L20.745 18.72C20.007 18.9722 19.3354 19.3875 18.78 19.935C18.2283 20.4871 17.8124 21.1598 17.565 21.9L16.74 24.315C16.629 24.5873 16.4479 24.8254 16.215 25.005C15.966 25.1854 15.6675 25.2849 15.36 25.29C15.051 25.2945 14.7495 25.1941 14.505 25.005C14.2555 24.8259 14.0671 24.5746 13.965 24.285L13.17 21.87C12.9229 21.1272 12.5052 20.4526 11.9504 19.9004C11.3955 19.3481 10.719 18.9336 9.975 18.69L7.575 17.895C7.28539 17.7929 7.03407 17.6045 6.855 17.355C6.66802 17.1094 6.56778 16.8087 6.57 16.5C6.57202 16.1874 6.67166 15.8832 6.855 15.63C7.02727 15.3869 7.27515 15.2075 7.56 15.12L9.975 14.31C10.7215 14.0572 11.4028 13.6423 11.97 13.095C12.525 12.534 12.9405 11.85 13.185 11.1L13.995 8.73C14.0849 8.4462 14.2572 8.19556 14.49 8.01C14.7292 7.80798 15.0319 7.69648 15.345 7.695C15.6426 7.68989 15.935 7.77343 16.185 7.935C16.449 8.0991 16.6498 8.34751 16.755 8.64L17.565 11.085C17.817 11.8395 18.237 12.5265 18.795 13.095C19.3587 13.6392 20.0345 14.0539 20.775 14.31L23.19 15.15C23.477 15.2415 23.7251 15.4263 23.895 15.675C24.0701 15.9258 24.1643 16.2241 24.165 16.53C24.1635 16.833 24.075 17.13 23.91 17.385Z" fill="white"/>
<path d="M47.5214 24.5V8.66H53.7804C53.9344 8.66 54.1178 8.66733 54.3304 8.682C54.5431 8.68933 54.7484 8.71133 54.9464 8.748C55.8044 8.88 56.5231 9.17333 57.1024 9.628C57.6891 10.0827 58.1291 10.6583 58.4224 11.355C58.7158 12.0443 58.8624 12.8107 58.8624 13.654C58.8624 14.49 58.7121 15.2563 58.4114 15.953C58.1181 16.6423 57.6781 17.218 57.0914 17.68C56.5121 18.1347 55.7971 18.428 54.9464 18.56C54.7484 18.5893 54.5431 18.6113 54.3304 18.626C54.1178 18.6407 53.9344 18.648 53.7804 18.648H49.4794V24.5H47.5214ZM49.4794 16.789H53.7144C53.8538 16.789 54.0114 16.7817 54.1874 16.767C54.3708 16.7523 54.5431 16.7267 54.7044 16.69C55.2104 16.5727 55.6211 16.36 55.9364 16.052C56.2591 15.7367 56.4938 15.37 56.6404 14.952C56.7871 14.5267 56.8604 14.094 56.8604 13.654C56.8604 13.214 56.7871 12.785 56.6404 12.367C56.4938 11.9417 56.2591 11.5713 55.9364 11.256C55.6211 10.9407 55.2104 10.728 54.7044 10.618C54.5431 10.574 54.3708 10.5483 54.1874 10.541C54.0114 10.5263 53.8538 10.519 53.7144 10.519H49.4794V16.789ZM61.0566 24.5V12.62H62.8056V15.491L62.5196 15.117C62.6589 14.7503 62.8386 14.413 63.0586 14.105C63.2859 13.797 63.5389 13.544 63.8176 13.346C64.1256 13.0967 64.4739 12.906 64.8626 12.774C65.2513 12.642 65.6473 12.565 66.0506 12.543C66.4539 12.5137 66.8316 12.5393 67.1836 12.62V14.457C66.7729 14.347 66.3219 14.3177 65.8306 14.369C65.3393 14.4203 64.8846 14.6 64.4666 14.908C64.0853 15.1793 63.7883 15.5093 63.5756 15.898C63.3703 16.2867 63.2273 16.7083 63.1466 17.163C63.0659 17.6103 63.0256 18.0687 63.0256 18.538V24.5H61.0566ZM74.1088 24.83C72.9281 24.83 71.9088 24.5623 71.0508 24.027C70.2001 23.4917 69.5438 22.751 69.0818 21.805C68.6198 20.859 68.3888 19.7737 68.3888 18.549C68.3888 17.3023 68.6235 16.2097 69.0928 15.271C69.5621 14.3323 70.2258 13.6027 71.0838 13.082C71.9418 12.554 72.9501 12.29 74.1088 12.29C75.2968 12.29 76.3198 12.5577 77.1778 13.093C78.0358 13.621 78.6921 14.358 79.1468 15.304C79.6088 16.2427 79.8398 17.3243 79.8398 18.549C79.8398 19.7883 79.6088 20.881 79.1468 21.827C78.6848 22.7657 78.0248 23.5027 77.1668 24.038C76.3088 24.566 75.2895 24.83 74.1088 24.83ZM74.1088 22.971C75.3408 22.971 76.2575 22.5603 76.8588 21.739C77.4601 20.9177 77.7608 19.8543 77.7608 18.549C77.7608 17.207 77.4565 16.14 76.8478 15.348C76.2391 14.5487 75.3261 14.149 74.1088 14.149C73.2801 14.149 72.5981 14.336 72.0628 14.71C71.5275 15.084 71.1278 15.601 70.8638 16.261C70.5998 16.921 70.4678 17.6837 70.4678 18.549C70.4678 19.8837 70.7758 20.9543 71.3918 21.761C72.0078 22.5677 72.9135 22.971 74.1088 22.971ZM96.4627 24.5L96.4737 16.899C96.4737 16.0117 96.2353 15.3187 95.7587 14.82C95.2893 14.314 94.677 14.061 93.9217 14.061C93.4817 14.061 93.0637 14.1637 92.6677 14.369C92.2717 14.567 91.949 14.8823 91.6997 15.315C91.4503 15.7403 91.3257 16.2867 91.3257 16.954L90.2917 16.536C90.277 15.6927 90.4493 14.9557 90.8087 14.325C91.1753 13.687 91.674 13.192 92.3047 12.84C92.9353 12.488 93.6467 12.312 94.4387 12.312C95.678 12.312 96.6533 12.6897 97.3647 13.445C98.076 14.193 98.4317 15.2013 98.4317 16.47L98.4207 24.5H96.4627ZM82.2507 24.5V12.62H83.9997V15.799H84.2197V24.5H82.2507ZM89.3677 24.5L89.3787 16.976C89.3787 16.0667 89.144 15.3553 88.6747 14.842C88.2053 14.3213 87.582 14.061 86.8047 14.061C86.0347 14.061 85.4113 14.325 84.9347 14.853C84.458 15.381 84.2197 16.0813 84.2197 16.954L83.1857 16.338C83.1857 15.568 83.369 14.8787 83.7357 14.27C84.1023 13.6613 84.601 13.1847 85.2317 12.84C85.8623 12.488 86.5773 12.312 87.3767 12.312C88.176 12.312 88.8727 12.4807 89.4667 12.818C90.0607 13.1553 90.519 13.6393 90.8417 14.27C91.1643 14.8933 91.3257 15.6377 91.3257 16.503L91.3147 24.5H89.3677ZM106.753 24.83C105.638 24.83 104.7 24.555 103.937 24.005C103.174 23.4477 102.595 22.696 102.199 21.75C101.81 20.7967 101.616 19.7297 101.616 18.549C101.616 17.3537 101.81 16.283 102.199 15.337C102.595 14.391 103.174 13.6467 103.937 13.104C104.707 12.5613 105.649 12.29 106.764 12.29C107.864 12.29 108.81 12.565 109.602 13.115C110.401 13.6577 111.014 14.402 111.439 15.348C111.864 16.294 112.077 17.361 112.077 18.549C112.077 19.737 111.864 20.804 111.439 21.75C111.014 22.696 110.401 23.4477 109.602 24.005C108.81 24.555 107.86 24.83 106.753 24.83ZM101.286 29.78V12.62H103.035V21.365H103.255V29.78H101.286ZM106.511 23.037C107.296 23.037 107.945 22.839 108.458 22.443C108.971 22.047 109.356 21.5117 109.613 20.837C109.87 20.155 109.998 19.3923 109.998 18.549C109.998 17.713 109.87 16.9577 109.613 16.283C109.364 15.6083 108.975 15.073 108.447 14.677C107.926 14.281 107.263 14.083 106.456 14.083C105.686 14.083 105.048 14.2737 104.542 14.655C104.036 15.029 103.658 15.5533 103.409 16.228C103.16 16.8953 103.035 17.669 103.035 18.549C103.035 19.4143 103.156 20.188 103.398 20.87C103.647 21.5447 104.029 22.0763 104.542 22.465C105.055 22.8463 105.712 23.037 106.511 23.037ZM121.121 24.5C120.417 24.6393 119.721 24.6943 119.031 24.665C118.349 24.643 117.741 24.5073 117.205 24.258C116.67 24.0013 116.263 23.6053 115.984 23.07C115.75 22.6007 115.621 22.1277 115.599 21.651C115.585 21.167 115.577 20.6207 115.577 20.012V9.32H117.535V19.924C117.535 20.408 117.539 20.8223 117.546 21.167C117.561 21.5117 117.638 21.8087 117.777 22.058C118.041 22.5273 118.459 22.8023 119.031 22.883C119.611 22.9637 120.307 22.9417 121.121 22.817V24.5ZM113.168 14.237V12.62H121.121V14.237H113.168ZM126.745 24.5L122.433 12.62H124.413L127.746 22.003L131.068 12.62H133.059L128.747 24.5H126.745ZM139.767 24.83C138.601 24.83 137.582 24.5733 136.709 24.06C135.844 23.5393 135.169 22.817 134.685 21.893C134.201 20.9617 133.959 19.8763 133.959 18.637C133.959 17.339 134.197 16.217 134.674 15.271C135.151 14.3177 135.814 13.5843 136.665 13.071C137.523 12.5503 138.528 12.29 139.679 12.29C140.874 12.29 141.89 12.565 142.726 13.115C143.569 13.665 144.2 14.4497 144.618 15.469C145.043 16.4883 145.227 17.702 145.168 19.11H143.188V18.406C143.166 16.9467 142.869 15.8577 142.297 15.139C141.725 14.413 140.874 14.05 139.745 14.05C138.535 14.05 137.615 14.4387 136.984 15.216C136.353 15.9933 136.038 17.108 136.038 18.56C136.038 19.9607 136.353 21.046 136.984 21.816C137.615 22.586 138.513 22.971 139.679 22.971C140.464 22.971 141.146 22.7913 141.725 22.432C142.304 22.0727 142.759 21.5557 143.089 20.881L144.97 21.53C144.508 22.5787 143.811 23.3927 142.88 23.972C141.956 24.544 140.918 24.83 139.767 24.83ZM135.378 19.11V17.537H144.156V19.11H135.378ZM147.617 24.5V12.62H149.366V15.491L149.08 15.117C149.219 14.7503 149.399 14.413 149.619 14.105C149.846 13.797 150.099 13.544 150.378 13.346C150.686 13.0967 151.034 12.906 151.423 12.774C151.812 12.642 152.208 12.565 152.611 12.543C153.014 12.5137 153.392 12.5393 153.744 12.62V14.457C153.333 14.347 152.882 14.3177 152.391 14.369C151.9 14.4203 151.445 14.6 151.027 14.908C150.646 15.1793 150.349 15.5093 150.136 15.898C149.931 16.2867 149.788 16.7083 149.707 17.163C149.626 17.6103 149.586 18.0687 149.586 18.538V24.5H147.617ZM159.882 24.819C158.467 24.819 157.305 24.511 156.395 23.895C155.493 23.2717 154.94 22.4027 154.734 21.288L156.736 20.969C156.898 21.6143 157.268 22.1277 157.847 22.509C158.427 22.883 159.145 23.07 160.003 23.07C160.817 23.07 161.455 22.9013 161.917 22.564C162.379 22.2267 162.61 21.7683 162.61 21.189C162.61 20.8517 162.533 20.5803 162.379 20.375C162.225 20.1623 161.906 19.9643 161.422 19.781C160.946 19.5977 160.223 19.3777 159.255 19.121C158.207 18.8423 157.382 18.5527 156.78 18.252C156.179 17.9513 155.75 17.603 155.493 17.207C155.237 16.811 155.108 16.3307 155.108 15.766C155.108 15.0693 155.299 14.4607 155.68 13.94C156.062 13.412 156.593 13.005 157.275 12.719C157.965 12.433 158.764 12.29 159.673 12.29C160.575 12.29 161.382 12.433 162.093 12.719C162.805 13.005 163.377 13.412 163.809 13.94C164.249 14.4607 164.51 15.0693 164.59 15.766L162.588 16.129C162.493 15.491 162.185 14.9887 161.664 14.622C161.151 14.2553 160.487 14.061 159.673 14.039C158.903 14.0097 158.276 14.1453 157.792 14.446C157.316 14.7467 157.077 15.1537 157.077 15.667C157.077 15.953 157.165 16.1987 157.341 16.404C157.525 16.6093 157.858 16.8037 158.342 16.987C158.834 17.1703 159.545 17.3793 160.476 17.614C161.525 17.878 162.35 18.1677 162.951 18.483C163.56 18.791 163.993 19.1577 164.249 19.583C164.506 20.001 164.634 20.518 164.634 21.134C164.634 22.278 164.213 23.18 163.369 23.84C162.526 24.4927 161.364 24.819 159.882 24.819ZM172.209 24.83C171.043 24.83 170.023 24.5733 169.151 24.06C168.285 23.5393 167.611 22.817 167.127 21.893C166.643 20.9617 166.401 19.8763 166.401 18.637C166.401 17.339 166.639 16.217 167.116 15.271C167.592 14.3177 168.256 13.5843 169.107 13.071C169.965 12.5503 170.969 12.29 172.121 12.29C173.316 12.29 174.332 12.565 175.168 13.115C176.011 13.665 176.642 14.4497 177.06 15.469C177.485 16.4883 177.668 17.702 177.61 19.11H175.63V18.406C175.608 16.9467 175.311 15.8577 174.739 15.139C174.167 14.413 173.316 14.05 172.187 14.05C170.977 14.05 170.056 14.4387 169.426 15.216C168.795 15.9933 168.48 17.108 168.48 18.56C168.48 19.9607 168.795 21.046 169.426 21.816C170.056 22.586 170.955 22.971 172.121 22.971C172.905 22.971 173.587 22.7913 174.167 22.432C174.746 22.0727 175.201 21.5557 175.531 20.881L177.412 21.53C176.95 22.5787 176.253 23.3927 175.322 23.972C174.398 24.544 173.36 24.83 172.209 24.83ZM167.82 19.11V17.537H176.598V19.11H167.82Z" fill="white"/>
<path d="M193.969 20.656H187.193L186.005 24H183.959L189.503 8.754H191.703L197.225 24H195.157L193.969 20.656ZM193.397 19.072L190.581 11.196L187.765 19.072H193.397ZM201.854 8.754V24H199.852V8.754H201.854Z" fill="white"/>
</svg>
