<svg width="1920" height="1099" viewBox="0 0 1920 1099" fill="none" xmlns="http://www.w3.org/2000/svg">
<g clip-path="url(#clip0_1_7249)">
<g clip-path="url(#clip1_1_7249)">
<path fill-rule="evenodd" clip-rule="evenodd" d="M361.935 464.155C361.617 463.282 360.383 463.282 360.065 464.155L358.622 468.122L354.655 469.565C353.782 469.883 353.782 471.117 354.655 471.435L358.622 472.878L360.065 476.845C360.383 477.718 361.617 477.718 361.935 476.845L363.378 472.878L367.345 471.435C368.218 471.117 368.218 469.883 367.345 469.565L363.378 468.122L361.935 464.155Z" fill="#CCCCCC"/>
</g>
<g clip-path="url(#clip2_1_7249)">
<path fill-rule="evenodd" clip-rule="evenodd" d="M145.402 770.482C144.925 769.173 143.074 769.173 142.597 770.482L140.433 776.433L134.482 778.597C133.173 779.074 133.173 780.925 134.482 781.402L140.433 783.567L142.597 789.517C143.074 790.827 144.925 790.827 145.402 789.517L147.567 783.567L153.517 781.402C154.827 780.925 154.827 779.074 153.517 778.597L147.567 776.433L145.402 770.482Z" fill="#CCCCCC"/>
</g>
<g clip-path="url(#clip3_1_7249)">
<path fill-rule="evenodd" clip-rule="evenodd" d="M697.739 1077.62C696.467 1074.13 691.531 1074.13 690.259 1077.62L684.487 1093.49L668.619 1099.26C665.127 1100.53 665.127 1105.47 668.619 1106.74L684.487 1112.51L690.259 1128.38C691.531 1131.87 696.467 1131.87 697.739 1128.38L703.511 1112.51L719.379 1106.74C722.871 1105.47 722.871 1100.53 719.379 1099.26L703.511 1093.49L697.739 1077.62Z" fill="#CCCCCC"/>
</g>
<g clip-path="url(#clip4_1_7249)">
<path fill-rule="evenodd" clip-rule="evenodd" d="M627.807 222.31C627.171 220.564 624.703 220.564 624.067 222.31L621.181 230.244L613.247 233.13C611.501 233.766 611.501 236.234 613.247 236.87L621.181 239.756L624.067 247.69C624.703 249.436 627.171 249.436 627.807 247.69L630.693 239.756L638.627 236.87C640.373 236.234 640.373 233.766 638.627 233.13L630.693 230.244L627.807 222.31Z" fill="#CCCCCC"/>
</g>
<g clip-path="url(#clip5_1_7249)">
<path fill-rule="evenodd" clip-rule="evenodd" d="M131.056 130.83C130.696 129.843 129.302 129.843 128.942 130.83L127.312 135.312L122.829 136.943C121.843 137.302 121.843 138.697 122.829 139.056L127.312 140.687L128.942 145.169C129.302 146.156 130.696 146.156 131.056 145.169L132.686 140.687L137.169 139.056C138.155 138.697 138.155 137.302 137.169 136.943L132.686 135.312L131.056 130.83Z" fill="#CCCCCC"/>
</g>
<g clip-path="url(#clip6_1_7249)">
<path fill-rule="evenodd" clip-rule="evenodd" d="M1830.87 397.31C1830.23 395.564 1827.77 395.564 1827.13 397.31L1824.24 405.244L1816.31 408.13C1814.56 408.766 1814.56 411.234 1816.31 411.87L1824.24 414.756L1827.13 422.69C1827.77 424.436 1830.23 424.436 1830.87 422.69L1833.76 414.756L1841.69 411.87C1843.44 411.234 1843.44 408.766 1841.69 408.13L1833.76 405.244L1830.87 397.31Z" fill="#CCCCCC"/>
</g>
<g clip-path="url(#clip7_1_7249)">
<path fill-rule="evenodd" clip-rule="evenodd" d="M1308.78 205.655C1308.46 204.782 1307.22 204.782 1306.91 205.655L1305.46 209.622L1301.5 211.065C1300.62 211.383 1300.62 212.617 1301.5 212.935L1305.46 214.378L1306.91 218.345C1307.22 219.218 1308.46 219.218 1308.78 218.345L1310.22 214.378L1314.19 212.935C1315.06 212.617 1315.06 211.383 1314.19 211.065L1310.22 209.622L1308.78 205.655Z" fill="#CCCCCC"/>
</g>
<g clip-path="url(#clip8_1_7249)">
<path fill-rule="evenodd" clip-rule="evenodd" d="M1660.93 898.655C1660.62 897.782 1659.38 897.782 1659.06 898.655L1657.62 902.622L1653.65 904.065C1652.78 904.383 1652.78 905.617 1653.65 905.935L1657.62 907.378L1659.06 911.345C1659.38 912.218 1660.62 912.218 1660.93 911.345L1662.38 907.378L1666.34 905.935C1667.22 905.617 1667.22 904.383 1666.34 904.065L1662.38 902.622L1660.93 898.655Z" fill="#CCCCCC"/>
</g>
</g>
<defs>
<clipPath id="clip0_1_7249">
<rect width="1920" height="1099" fill="white"/>
</clipPath>
<clipPath id="clip1_1_7249">
<rect width="14" height="14" fill="white" transform="translate(354 463.5)"/>
</clipPath>
<clipPath id="clip2_1_7249">
<rect width="21" height="21" fill="white" transform="translate(133.5 769.5)"/>
</clipPath>
<clipPath id="clip3_1_7249">
<rect width="56" height="56" fill="white" transform="translate(666 1075)"/>
</clipPath>
<clipPath id="clip4_1_7249">
<rect width="28" height="28" fill="white" transform="translate(611.938 221)"/>
</clipPath>
<clipPath id="clip5_1_7249">
<rect width="15.82" height="15.82" fill="white" transform="translate(122.089 130.089)"/>
</clipPath>
<clipPath id="clip6_1_7249">
<rect width="28" height="28" fill="white" transform="translate(1815 396)"/>
</clipPath>
<clipPath id="clip7_1_7249">
<rect width="14" height="14" fill="white" transform="translate(1300.84 205)"/>
</clipPath>
<clipPath id="clip8_1_7249">
<rect width="14" height="14" fill="white" transform="translate(1653 898)"/>
</clipPath>
</defs>
</svg>
